PathFileType	4	(X/Y/Z)	C:\Users\Basilio\Documents\Thesis Gigler\squatting_fais\c3dfiles\054\SLS_back_pre1\markers_experimental.trc
DataRate	CameraRate	NumFrames	NumMarkers	Units	OrigDataRate	OrigDataStartFrame	OrigNumFrames
200.000000	200.000000	4	61	mm	200.000000	0	1738
Frame#	Time	FHD			LBHD			RBHD			C7			T10			CLAV			LSHO			LUUPA			LMUPA			LDUPA			LLEP			LMEP			LRAD			LUL			LRFIN			RSHO			RUPA1			RMUPA			RDUPA			RLEP			RMEP			RRAD			RUL			RUFIN			LASI			RASI			USACR			LSACR			RSACR			LTHI1			LTHI2			LTHI3			LTHI4			LLFC			LMFC			LTIB1			LTIB2			LTIB3			LTIB4			LLMAL			LMMAL			LHEE			LMT1			LMT2			LMT5			RTHI			RTHI2			RTHI3			RTHI4			RLFC			RMFC			RTIB1			RTIB2			RTIB3			RTIB4			RLMAL			RMMAL			RHEE			RMT1			RMT2			RMT5			
		X1	Y1	Z1	X2	Y2	Z2	X3	Y3	Z3	X4	Y4	Z4	X5	Y5	Z5	X6	Y6	Z6	X7	Y7	Z7	X8	Y8	Z8	X9	Y9	Z9	X10	Y10	Z10	X11	Y11	Z11	X12	Y12	Z12	X13	Y13	Z13	X14	Y14	Z14	X15	Y15	Z15	X16	Y16	Z16	X17	Y17	Z17	X18	Y18	Z18	X19	Y19	Z19	X20	Y20	Z20	X21	Y21	Z21	X22	Y22	Z22	X23	Y23	Z23	X24	Y24	Z24	X25	Y25	Z25	X26	Y26	Z26	X27	Y27	Z27	X28	Y28	Z28	X29	Y29	Z29	X30	Y30	Z30	X31	Y31	Z31	X32	Y32	Z32	X33	Y33	Z33	X34	Y34	Z34	X35	Y35	Z35	X36	Y36	Z36	X37	Y37	Z37	X38	Y38	Z38	X39	Y39	Z39	X40	Y40	Z40	X41	Y41	Z41	X42	Y42	Z42	X43	Y43	Z43	X44	Y44	Z44	X45	Y45	Z45	X46	Y46	Z46	X47	Y47	Z47	X48	Y48	Z48	X49	Y49	Z49	X50	Y50	Z50	X51	Y51	Z51	X52	Y52	Z52	X53	Y53	Z53	X54	Y54	Z54	X55	Y55	Z55	X56	Y56	Z56	X57	Y57	Z57	X58	Y58	Z58	X59	Y59	Z59	X60	Y60	Z60	X61	Y61	Z61	

1	0	-213.9022521972657	1799.77197265625	-927.2676391601565	-373.6351928710938	1728.881591796875	-985.462829589844	-380.0664367675782	1727.04443359375	-845.2183227539065	-404.7075195312501	1562.318237304688	-907.5022583007815	-419.2454223632814	1229.342529296875	-906.5595703125002	-259.0950012207032	1508.460693359375	-914.6321411132815	-346.0613708496094	1546.74072265625	-1076.600952148438	-368.7557067871094	1318.2607421875	-1188.479125976563	-322.0671997070313	1305.512451171875	-1183.344116210938	-347.9249877929688	1252.490356445313	-1194.67041015625	-324.5001220703126	1204.233032226563	-1195.925537109375	-362.5135803222657	1178.237182617188	-1127.201049804688	-178.544418334961	986.3420410156252	-1154.857666015625	-213.4281311035157	960.8568115234377	-1218.779174804688	-127.5405349731446	912.9485473632815	-1174.994018554688	-326.4098815917969	1548.3662109375	-747.8731689453126	-329.0879821777344	1315.175048828125	-635.5629272460939	-288.4858093261719	1295.277587890625	-650.8027954101564	-321.9463806152344	1245.7724609375	-637.9623413085939	-315.6213989257813	1204.10986328125	-645.6672363281251	-358.8400878906251	1192.436767578125	-711.5154418945314	-185.6039428710938	964.479187011719	-715.0767211914064	-228.9178771972657	954.0242919921877	-649.4516601562501	-141.5192413330078	901.5791625976565	-695.1192016601564	-226.8786315917969	1063.511840820313	-1034.338012695313	-221.7568511962891	1065.765380859375	-780.5736083984377	-414.6913146972657	1143.35595703125	-906.190856933594	-420.5425109863282	1111.592041015625	-934.2291259765627	-418.3282470703126	1110.229248046875	-878.1072387695315	-327.4583129882813	828.3980102539065	-1124.536376953125	-303.0878906250001	746.6890869140626	-1118.966552734375	-256.4521789550782	746.6738281250001	-1109.343872070313	-337.9080505371094	697.2329711914064	-1103.6650390625	-352.7552795410157	542.7344360351564	-1083.958129882813	-325.2039184570313	532.8536376953126	-946.9307861328127	-302.9461059570313	381.9311523437501	-1040.865844726563	-349.7784423828126	335.6479187011719	-1100.719970703125	-311.3741149902344	334.8254699707032	-1075.782958984375	-310.7637939453126	255.1580505371094	-1045.955444335938	-359.4959106445313	114.3055877685547	-1090.997436523438	-328.0740051269532	133.6045684814453	-1000.363159179688	-427.5170288085939	101.1111145019532	-1034.191040039063	-214.9960632324219	57.12053298950197	-1012.443664550781	-206.9165191650391	55.30175018310548	-1061.497924804688	-258.6266784667969	38.30434036254884	-1113.217041015625	-319.4779357910157	760.3323974609376	-704.3939819335939	-284.4750976562501	703.8959960937501	-706.5775756835939	-251.6368560791016	703.9874877929689	-712.2185668945314	-315.9937133789063	628.3963623046876	-725.8219604492189	-329.5554199218751	536.3262329101564	-730.6853027343751	-274.1563415527344	537.9827270507814	-858.0765380859377	-279.8963928222657	425.3576660156251	-734.3685302734376	-354.6964416503907	356.5784301757813	-702.1483154296876	-309.4346923828126	347.1349792480469	-710.4431152343751	-295.7558593750001	295.4668273925782	-732.0030517578126	-359.7568054199219	123.475456237793	-707.9736938476564	-318.2667541503907	134.7633056640625	-794.0952758789065	-419.8886108398439	99.15595245361331	-768.7986450195315	-200.7066040039063	54.69798660278322	-771.8001098632815	-200.9442596435547	57.27121734619142	-723.5191650390626	-252.4924316406251	42.52172470092774	-678.2027587890626	
2	0.005	-214.182601928711	1799.794677734375	-927.4013671875002	-373.9424438476563	1728.73974609375	-985.5576782226565	-380.3876037597657	1727.032958984375	-845.268249511719	-404.810028076172	1562.2216796875	-907.5261230468752	-419.135467529297	1229.260131835938	-906.4556884765627	-259.1275329589844	1508.47216796875	-914.6656494140627	-345.8221130371094	1546.408081054688	-1076.512939453125	-369.0046386718751	1318.0517578125	-1188.358276367188	-322.4487915039063	1305.30029296875	-1183.27880859375	-348.3723144531251	1252.287353515625	-1194.464721679688	-324.9414978027344	1204.015747070313	-1195.794921875	-362.8506774902344	1178.0791015625	-1127.024291992188	-179.1372222900391	985.7864379882815	-1155.097412109375	-214.5246582031251	960.4124145507815	-1218.977905273438	-128.5691070556641	912.5695800781252	-1175.498413085938	-326.4356384277344	1548.3662109375	-747.8298339843751	-328.9736328125001	1315.20458984375	-635.4320678710939	-288.2658386230469	1295.359619140625	-650.7490844726564	-321.7278442382813	1245.824096679688	-637.7606811523439	-315.2514648437501	1204.1171875	-645.4461669921876	-358.6107788085938	1192.379638671875	-711.2105712890626	-185.0687103271485	964.6829223632815	-714.8703613281251	-228.4478912353516	954.174743652344	-649.2337646484376	-140.8766632080078	901.6771240234377	-695.2768554687501	-226.7298889160157	1063.46435546875	-1034.227905273438	-221.5436553955079	1065.776489257813	-780.4653320312502	-414.567840576172	1143.36328125	-906.1890258789065	-420.4082641601564	1111.537475585938	-934.2188720703127	-418.1782836914064	1110.16357421875	-878.067810058594	-327.4340820312501	828.4300537109377	-1124.463500976563	-303.1270751953126	746.6838989257814	-1118.898681640625	-256.5223388671876	746.6270141601564	-1109.250244140625	-337.9446411132813	697.2335205078126	-1103.596923828125	-352.8873596191407	542.7000122070314	-1083.847534179688	-325.3306274414063	532.8632812500001	-946.868835449219	-303.1726989746094	381.9614562988282	-1040.806396484375	-350.0080566406251	335.5757141113282	-1100.744262695313	-311.6086730957032	334.8033447265626	-1075.725463867188	-310.8286132812501	255.1926879882813	-1045.946533203125	-359.4923706054688	114.3412704467774	-1091.004272460938	-328.0674743652344	133.6315002441407	-1000.333190917969	-427.4700012207032	101.0878982543946	-1034.159423828125	-214.9680175781251	57.12943649291994	-1012.4052734375	-206.9349670410157	55.29492950439455	-1061.529174804688	-258.5514221191407	38.33687210083009	-1113.240844726563	-319.5498657226563	760.3219604492189	-704.3704223632814	-284.7908325195313	703.9554443359376	-706.9999389648439	-251.7411346435547	703.8526611328126	-712.1564941406251	-316.2417297363282	628.4498901367189	-725.7769775390626	-329.8612365722657	536.3175048828126	-730.6769409179689	-274.4833984375001	537.8807373046876	-858.065124511719	-280.1472778320313	425.4009094238282	-734.3924560546876	-354.8504028320313	356.5569458007813	-702.2052612304689	-309.6931152343751	347.1507568359376	-710.3505249023439	-295.9139709472657	295.4875183105469	-732.0283813476564	-359.7971496582032	123.4705047607422	-708.0093383789064	-318.2330322265626	134.71923828125	-794.1170043945315	-419.8956909179689	99.20227813720706	-768.7708129882815	-200.6962890625001	54.64816665649415	-771.7864379882815	-200.9034118652344	57.22050857543947	-723.5045776367189	-252.4863433837891	42.51545715332032	-678.1647338867189	
3	0.01	-214.3954467773438	1799.807983398438	-927.6107177734377	-374.2344970703126	1728.59228515625	-985.589782714844	-380.5817260742188	1727.043579101563	-845.3526000976565	-404.9297485351564	1562.14306640625	-907.4917602539065	-419.053924560547	1229.1884765625	-906.4404907226565	-259.1430053710938	1508.474365234375	-914.6019287109377	-345.8923950195313	1546.30712890625	-1076.4599609375	-369.3120117187501	1317.918579101563	-1188.242431640625	-322.7290649414063	1305.053588867188	-1183.172241210938	-348.6308593750001	1252.123413085938	-1194.299560546875	-325.3355712890626	1203.809448242188	-1195.655639648438	-363.2370300292969	1177.968383789063	-1126.732299804688	-179.8035430908203	985.4201660156252	-1155.390258789063	-215.6143951416016	959.8590087890627	-1219.135375976563	-129.1835327148438	912.0340576171877	-1175.9443359375	-326.4982604980469	1548.368896484375	-747.7924194335939	-328.8200988769532	1315.2626953125	-635.2592163085939	-288.0987243652344	1295.453125	-650.5377197265626	-321.5385742187501	1245.848754882813	-637.5512695312501	-314.9292297363282	1204.227416992188	-645.2115478515626	-358.4162292480469	1192.301391601563	-710.9804687500001	-184.3100128173828	964.9820556640627	-714.5922241210939	-227.8636627197266	954.380554199219	-648.9835815429689	-140.5555419921875	901.7215576171877	-695.1896972656251	-226.5415496826172	1063.466064453125	-1034.148681640625	-221.4629058837891	1065.73876953125	-780.352722167969	-414.4767150878907	1143.306274414063	-906.0991821289065	-420.2990722656251	1111.518920898438	-934.182312011719	-418.0731201171876	1110.112670898438	-878.0662231445315	-327.3900146484376	828.426940917969	-1124.461669921875	-303.1214904785157	746.6758422851564	-1118.802978515625	-256.5128173828126	746.6107788085939	-1109.172729492188	-337.9994506835938	697.2158813476564	-1103.506713867188	-353.0514526367188	542.6879272460939	-1083.789184570313	-325.5437622070313	532.8704833984376	-946.8068847656252	-303.3434143066407	382.0708007812501	-1040.732543945313	-349.9474792480469	335.7428283691407	-1100.5986328125	-311.7010803222657	334.8633117675782	-1075.663696289063	-310.9168395996094	255.3165893554688	-1045.914916992188	-359.2203369140626	114.1795654296875	-1091.014282226563	-328.0439147949219	133.6464385986328	-1000.358642578125	-427.4724731445314	101.0592498779297	-1034.1845703125	-214.9986114501954	57.14506149291994	-1012.411804199219	-206.8992919921876	55.3617630004883	-1061.488647460938	-258.5846252441407	38.34930801391602	-1113.225219726563	-319.5735168457032	760.3447875976564	-704.3543701171876	-284.9940795898438	703.8491210937501	-706.9338989257814	-251.8265838623047	703.7714843750001	-712.1567993164064	-316.4762268066407	628.4977416992189	-725.7485351562501	-330.2367248535157	536.3137817382814	-730.7103271484376	-274.7180786132813	537.8479003906251	-858.083190917969	-280.4787902832032	425.4912719726564	-734.4754028320314	-355.0462951660157	356.5509033203126	-702.1850585937501	-309.8496398925782	347.1553955078126	-710.3800659179689	-296.0829467773438	295.5358276367188	-731.9891357421876	-359.7874755859376	123.4469375610352	-708.0449829101564	-318.2247314453126	134.6898651123047	-794.149597167969	-419.8648071289064	99.1903991699219	-768.8001708984377	-200.6746978759766	54.60493087768556	-771.7256469726565	-200.9112243652344	57.10730743408205	-723.5416870117189	-252.4895324707032	42.46236801147462	-678.1661376953126	
4	0.015	-214.7476501464844	1799.702270507813	-927.7928466796877	-374.5613708496094	1728.440551757813	-985.6494140625002	-380.7677001953126	1727.060180664063	-845.4160156250002	-405.0130310058595	1562.04248046875	-907.5191040039065	-418.9412536621095	1229.124755859375	-906.3655395507815	-259.3046264648438	1508.458374023438	-914.576354980469	-345.9623718261719	1546.146362304688	-1076.427124023438	-369.5957031250001	1317.767578125	-1188.099365234375	-323.1044616699219	1304.899536132813	-1182.999389648438	-349.0290832519532	1251.90673828125	-1194.089965820313	-325.6696166992188	1203.577392578125	-1195.478149414063	-363.5969848632813	1177.878662109375	-1126.474487304688	-180.6481170654297	985.031188964844	-1155.782592773438	-216.5746154785157	959.4062500000002	-1219.254516601563	-130.4334411621094	911.4617919921877	-1176.336791992188	-326.5738525390626	1548.372924804688	-747.7778930664064	-328.6640930175782	1315.316528320313	-635.1066894531251	-287.8453674316407	1295.588134765625	-650.3617553710939	-321.2911376953126	1245.922607421875	-637.3106689453126	-314.7810974121094	1204.30859375	-644.9605712890626	-358.2023925781251	1192.260375976563	-710.7635498046876	-183.6123962402344	965.1743774414065	-714.3984375000001	-227.2141418457032	954.558044433594	-648.5873413085939	-140.1365966796875	901.8615722656252	-695.0128784179689	-226.3907623291016	1063.466918945313	-1034.03369140625	-221.3864440917969	1065.727416992188	-780.2475585937502	-414.3411560058595	1143.314208984375	-906.099548339844	-420.2018127441407	1111.50537109375	-934.169860839844	-417.9149475097657	1110.094604492188	-878.0529785156252	-327.4234313964844	828.4294433593752	-1124.418334960938	-303.1409912109376	746.6769409179689	-1118.752075195313	-256.5528869628907	746.6108398437501	-1109.104370117188	-338.0404052734376	697.2557983398439	-1103.464965820313	-353.2057800292969	542.7034912109376	-1083.709716796875	-325.7125244140626	532.8638305664064	-946.758239746094	-303.4458312988282	382.1175842285157	-1040.727783203125	-350.0446777343751	335.7573242187501	-1100.58056640625	-311.8927001953126	334.8284912109376	-1075.643798828125	-310.9942626953126	255.3665161132813	-1045.912475585938	-359.4675598144532	114.3642959594727	-1090.953491210938	-328.1180114746094	133.6215515136719	-1000.329895019531	-427.4809875488282	101.113265991211	-1034.139770507813	-214.9840240478516	57.14681243896486	-1012.429138183594	-206.9132537841797	55.34243774414064	-1061.478759765625	-258.5861816406251	38.35128021240235	-1113.225341796875	-319.7183227539063	760.3436279296876	-704.3294067382814	-285.0812683105469	703.8299560546876	-706.9801635742189	-251.9456787109376	703.7187500000001	-712.1849975585939	-316.7352905273438	628.5628051757814	-725.7562255859376	-330.5887756347657	536.3435668945314	-730.7261352539064	-275.1099853515626	537.7437744140626	-858.0968017578127	-280.6856994628907	425.5245056152345	-734.5195922851564	-355.3206787109376	356.4995422363282	-702.1621704101564	-310.3107299804688	347.1809387207032	-710.2058715820314	-296.2460021972657	295.5770874023438	-732.0110473632814	-359.7935180664063	123.4844970703125	-708.0693359375001	-318.2614135742188	134.6834259033203	-794.1280517578127	-419.8883361816407	99.20828247070315	-768.7578735351565	-200.6571502685547	54.59057998657228	-771.6730957031252	-200.8850097656251	57.06200027465822	-723.4894409179689	-252.5086975097657	42.47383499145509	-678.1317749023439	
